<svg width="128" height="128" viewBox="0 0 128 128" fill="none" xmlns="http://www.w3.org/2000/svg">
<path d="M8 88H12V92H8V88Z" fill="#212121"/>
<path d="M8 84H12V88H8V84Z" fill="#212121"/>
<path d="M8 80H12V84H8V80Z" fill="#212121"/>
<path d="M8 76H12V80H8V76Z" fill="#212121"/>
<path d="M8 72H12V76H8V72Z" fill="#212121"/>
<path d="M8 68H12V72H8V68Z" fill="#212121"/>
<path d="M8 64H12V68H8V64Z" fill="#212121"/>
<path d="M12 64H16V68H12V64Z" fill="#212121"/>
<path d="M12 72H16V76H12V72Z" fill="#212121"/>
<path d="M12 80H16V84H12V80Z" fill="#212121"/>
<path d="M8 60H12V64H8V60Z" fill="#212121"/>
<path d="M8 56H12V60H8V56Z" fill="#212121"/>
<path d="M12 56H16V60H12V56Z" fill="#212121"/>
<path d="M16 56H20V60H16V56Z" fill="#212121"/>
<path d="M20 56H24V60H20V56Z" fill="#212121"/>
<path d="M24 56H28V60H24V56Z" fill="#212121"/>
<path d="M28 56H32V60H28V56Z" fill="#212121"/>
<path d="M32 56H36V60H32V56Z" fill="#212121"/>
<path d="M36 56H40V60H36V56Z" fill="#212121"/>
<path d="M40 56H44V60H40V56Z" fill="#212121"/>
<path d="M44 56H48V60H44V56Z" fill="#212121"/>
<path d="M48 60H52V64H48V60Z" fill="#212121"/>
<path d="M52 64H56V68H52V64Z" fill="#212121"/>
<path d="M56 64H60V68H56V64Z" fill="#212121"/>
<path d="M60 64H64V68H60V64Z" fill="#212121"/>
<path d="M64 64H68V68H64V64Z" fill="#212121"/>
<path d="M68 64H72V68H68V64Z" fill="#212121"/>
<path d="M72 64H76V68H72V64Z" fill="#212121"/>
<path d="M76 60H80V64H76V60Z" fill="#212121"/>
<path d="M80 56H84V60H80V56Z" fill="#212121"/>
<path d="M84 56H88V60H84V56Z" fill="#212121"/>
<path d="M88 56H92V60H88V56Z" fill="#212121"/>
<path d="M92 56H96V60H92V56Z" fill="#212121"/>
<path d="M96 56H100V60H96V56Z" fill="#212121"/>
<path d="M100 56H104V60H100V56Z" fill="#212121"/>
<path d="M104 56H108V60H104V56Z" fill="#212121"/>
<path d="M108 56H112V60H108V56Z" fill="#212121"/>
<path d="M112 56H116V60H112V56Z" fill="#212121"/>
<path d="M112 52H116V56H112V52Z" fill="#212121"/>
<path d="M108 48H112V52H108V48Z" fill="#212121"/>
<path d="M104 44H108V48H104V44Z" fill="#212121"/>
<path d="M100 40H104V44H100V40Z" fill="#212121"/>
<path d="M96 36H100V40H96V36Z" fill="#212121"/>
<path d="M92 36H96V40H92V36Z" fill="#212121"/>
<path d="M92 32H96V36H92V32Z" fill="#212121"/>
<path d="M88 32H92V36H88V32Z" fill="#212121"/>
<path d="M84 32H88V36H84V32Z" fill="#212121"/>
<path d="M80 32H84V36H80V32Z" fill="#212121"/>
<path d="M76 32H80V36H76V32Z" fill="#212121"/>
<path d="M72 32H76V36H72V32Z" fill="#212121"/>
<path d="M68 32H72V36H68V32Z" fill="#212121"/>
<path d="M64 32H68V36H64V32Z" fill="#212121"/>
<path d="M60 32H64V36H60V32Z" fill="#212121"/>
<path d="M56 32H60V36H56V32Z" fill="#212121"/>
<path d="M52 32H56V36H52V32Z" fill="#212121"/>
<path d="M48 32H52V36H48V32Z" fill="#212121"/>
<path d="M44 32H48V36H44V32Z" fill="#212121"/>
<path d="M40 32H44V36H40V32Z" fill="#212121"/>
<path d="M36 32H40V36H36V32Z" fill="#212121"/>
<path d="M32 32H36V36H32V32Z" fill="#212121"/>
<path d="M28 36H32V40H28V36Z" fill="#212121"/>
<path d="M24 40H28V44H24V40Z" fill="#212121"/>
<path d="M20 44H24V48H20V44Z" fill="#212121"/>
<path d="M16 48H20V52H16V48Z" fill="#212121"/>
<path d="M12 52H16V56H12V52Z" fill="#212121"/>
<path d="M28 52H32V56H28V52Z" fill="#212121"/>
<path d="M32 48H36V52H32V48Z" fill="#212121"/>
<path d="M36 48H40V52H36V48Z" fill="#212121"/>
<path d="M40 48H44V52H40V48Z" fill="#212121"/>
<path d="M44 48H48V52H44V48Z" fill="#212121"/>
<path d="M48 48H52V52H48V48Z" fill="#212121"/>
<path d="M52 48H56V52H52V48Z" fill="#212121"/>
<path d="M56 48H60V52H56V48Z" fill="#212121"/>
<path d="M60 48H64V52H60V48Z" fill="#212121"/>
<path d="M64 48H68V52H64V48Z" fill="#212121"/>
<path d="M68 48H72V52H68V48Z" fill="#212121"/>
<path d="M72 48H76V52H72V48Z" fill="#212121"/>
<path d="M76 48H80V52H76V48Z" fill="#212121"/>
<path d="M80 48H84V52H80V48Z" fill="#212121"/>
<path d="M84 48H88V52H84V48Z" fill="#212121"/>
<path d="M88 48H92V52H88V48Z" fill="#212121"/>
<path d="M92 48H96V52H92V48Z" fill="#212121"/>
<path d="M96 52H100V56H96V52Z" fill="#212121"/>
<path d="M92 44H96V48H92V44Z" fill="#212121"/>
<path d="M92 40H96V44H92V40Z" fill="#212121"/>
<path d="M32 44H36V48H32V44Z" fill="#212121"/>
<path d="M32 40H36V44H32V40Z" fill="#212121"/>
<path d="M32 36H36V40H32V36Z" fill="#212121"/>
<path d="M116 56H120V60H116V56Z" fill="#212121"/>
<path d="M116 60H120V64H116V60Z" fill="#212121"/>
<path d="M116 64H120V68H116V64Z" fill="#212121"/>
<path d="M116 68H120V72H116V68Z" fill="#212121"/>
<path d="M116 72H120V76H116V72Z" fill="#212121"/>
<path d="M116 76H120V80H116V76Z" fill="#212121"/>
<path d="M116 80H120V84H116V80Z" fill="#212121"/>
<path d="M112 80H116V84H112V80Z" fill="#212121"/>
<path d="M112 72H116V76H112V72Z" fill="#212121"/>
<path d="M112 64H116V68H112V64Z" fill="#212121"/>
<path d="M116 84H120V88H116V84Z" fill="#212121"/>
<path d="M12 92H16V96H12V92Z" fill="#212121"/>
<path d="M16 92H20V96H16V92Z" fill="#212121"/>
<path d="M20 92H24V96H20V92Z" fill="#212121"/>
<path d="M12 88H16V92H12V88Z" fill="#212121"/>
<path d="M16 88H20V92H16V88Z" fill="#212121"/>
<path d="M20 88H24V92H20V88Z" fill="#212121"/>
<path d="M24 88H28V92H24V88Z" fill="#212121"/>
<path d="M28 88H32V92H28V88Z" fill="#212121"/>
<path d="M32 88H36V92H32V88Z" fill="#212121"/>
<path d="M36 88H40V92H36V88Z" fill="#212121"/>
<path d="M40 88H44V92H40V88Z" fill="#212121"/>
<path d="M44 88H48V92H44V88Z" fill="#212121"/>
<path d="M48 88H52V92H48V88Z" fill="#212121"/>
<path d="M52 88H56V92H52V88Z" fill="#212121"/>
<path d="M56 88H60V92H56V88Z" fill="#212121"/>
<path d="M60 88H64V92H60V88Z" fill="#212121"/>
<path d="M64 88H68V92H64V88Z" fill="#212121"/>
<path d="M68 88H72V92H68V88Z" fill="#212121"/>
<path d="M72 88H76V92H72V88Z" fill="#212121"/>
<path d="M76 88H80V92H76V88Z" fill="#212121"/>
<path d="M80 88H84V92H80V88Z" fill="#212121"/>
<path d="M84 88H88V92H84V88Z" fill="#212121"/>
<path d="M88 88H92V92H88V88Z" fill="#212121"/>
<path d="M92 88H96V92H92V88Z" fill="#212121"/>
<path d="M96 88H100V92H96V88Z" fill="#212121"/>
<path d="M100 88H104V92H100V88Z" fill="#212121"/>
<path d="M104 88H108V92H104V88Z" fill="#212121"/>
<path d="M108 88H112V92H108V88Z" fill="#212121"/>
<path d="M112 88H116V92H112V88Z" fill="#212121"/>
<path d="M116 88H120V92H116V88Z" fill="#212121"/>
<path d="M112 92H116V96H112V92Z" fill="#212121"/>
<path d="M108 92H112V96H108V92Z" fill="#212121"/>
<path d="M104 92H108V96H104V92Z" fill="#212121"/>
</svg>
